{
  "accessors": [
    {
      "bufferView": 2,
      "componentType": 5126,
      "count": 24,
      "max": [
        1.5874706506729126,
        0.008978414349257946,
        1.1958235502243042
      ],
      "min": [
        -1.1958235502243042,
        -0.008978431113064289,
        -1.5874706506729126
      ],
      "type": "VEC3"
    },
    {
      "bufferView": 2,
      "byteOffset": 288,
      "componentType": 5126,
      "count": 24,
      "max": [
        1.0,
        1.0,
        0.9626065492630005
      ],
      "min": [
        -0.9626065492630005,
        -1.0,
        -1.0
      ],
      "type": "VEC3"
    },
    {
      "bufferView": 1,
      "componentType": 5126,
      "count": 24,
      "max": [
        1.0,
        1.0
      ],
      "min": [
        0.0,
        0.0
      ],
      "type": "VEC2"
    },
    {
      "bufferView": 0,
      "componentType": 5125,
      "count": 36,
      "type": "SCALAR"
    },
    {
      "bufferView": 2,
      "byteOffset": 576,
      "componentType": 5126,
      "count": 484,
      "max": [
        1.4183886051177979,
        0.013843853026628494,
        1.2011196613311768
      ],
      "min": [
        -1.1915886402130127,
        0.0011883899569511414,
        -1.4072685241699219
      ],
      "type": "VEC3"
    },
    {
      "bufferView": 2,
      "byteOffset": 6384,
      "componentType": 5126,
      "count": 484,
      "max": [
        0.7100935578346252,
        0.9999995231628418,
        0.7071070075035095
      ],
      "min": [
        -0.7071065902709961,
        -0.9999994039535522,
        -0.7106068730354309
      ],
      "type": "VEC3"
    },
    {
      "bufferView": 1,
      "byteOffset": 192,
      "componentType": 5126,
      "count": 484,
      "max": [
        0.5892857909202576,
        1.0
      ],
      "min": [
        0.125,
        0.0
      ],
      "type": "VEC2"
    },
    {
      "bufferView": 0,
      "byteOffset": 144,
      "componentType": 5125,
      "count": 726,
      "type": "SCALAR"
    },
    {
      "bufferView": 2,
      "byteOffset": 12192,
      "componentType": 5126,
      "count": 65533,
      "max": [
        0.7804760336875916,
        0.02065575122833252,
        1.1875635385513306
      ],
      "min": [
        -1.1828606128692627,
        -0.003461056388914585,
        -0.7923378944396973
      ],
      "type": "VEC3"
    },
    {
      "bufferView": 2,
      "byteOffset": 798588,
      "componentType": 5126,
      "count": 65533,
      "max": [
        0.9787434339523315,
        0.9999681115150452,
        0.9999800324440002
      ],
      "min": [
        -0.9988254904747009,
        -0.9999708533287048,
        -0.9805031418800354
      ],
      "type": "VEC3"
    },
    {
      "bufferView": 1,
      "byteOffset": 4064,
      "componentType": 5126,
      "count": 65533,
      "max": [
        0.8750001192092896,
        1.0000001192092896
      ],
      "min": [
        0.140625,
        0.0
      ],
      "type": "VEC2"
    },
    {
      "bufferView": 0,
      "byteOffset": 3048,
      "componentType": 5125,
      "count": 98385,
      "type": "SCALAR"
    },
    {
      "bufferView": 2,
      "byteOffset": 1584984,
      "componentType": 5126,
      "count": 32699,
      "max": [
        0.7804760336875916,
        0.020567279309034348,
        1.187535047531128
      ],
      "min": [
        -1.1828570365905762,
        -0.0033245766535401344,
        -0.7923378944396973
      ],
      "type": "VEC3"
    },
    {
      "bufferView": 2,
      "byteOffset": 1977372,
      "componentType": 5126,
      "count": 32699,
      "max": [
        0.9787235856056213,
        0.9999989867210388,
        0.999980092048645
      ],
      "min": [
        -0.9988033771514893,
        -0.9998487830162048,
        -0.9804409742355347
      ],
      "type": "VEC3"
    },
    {
      "bufferView": 1,
      "byteOffset": 528328,
      "componentType": 5126,
      "count": 32699,
      "max": [
        0.8750001192092896,
        1.0000001192092896
      ],
      "min": [
        0.125,
        0.4999999701976776
      ],
      "type": "VEC2"
    },
    {
      "bufferView": 0,
      "byteOffset": 396588,
      "componentType": 5125,
      "count": 49071,
      "type": "SCALAR"
    },
    {
      "bufferView": 2,
      "byteOffset": 2369760,
      "componentType": 5126,
      "count": 16,
      "max": [
        1.940791130065918,
        0.014024331234395504,
        -1.1861050128936768
      ],
      "min": [
        1.1974174976348877,
        0.0038999300450086594,
        -1.9451578855514526
      ],
      "type": "VEC3"
    },
    {
      "bufferView": 2,
      "byteOffset": 2369952,
      "componentType": 5126,
      "count": 16,
      "max": [
        0.7071067690849304,
        0.9999585151672363,
        0.9983789324760437
      ],
      "min": [
        -0.9993818998336792,
        -0.9999585151672363,
        -0.7071068286895752
      ],
      "type": "VEC3"
    },
    {
      "bufferView": 1,
      "byteOffset": 789920,
      "componentType": 5126,
      "count": 16,
      "max": [
        0.875,
        1.0
      ],
      "min": [
        0.125,
        0.25
      ],
      "type": "VEC2"
    },
    {
      "bufferView": 0,
      "byteOffset": 592872,
      "componentType": 5125,
      "count": 18,
      "type": "SCALAR"
    },
    {
      "bufferView": 3,
      "componentType": 5126,
      "count": 50,
      "max": [
        2.0833332538604736
      ],
      "min": [
        0.0416666679084301
      ],
      "type": "SCALAR"
    },
    {
      "bufferView": 5,
      "componentType": 5126,
      "count": 50,
      "max": [
        -0.2635277211666107,
        -0.1778039187192917,
        -0.6096611618995667,
        0.68438720703125
      ],
      "min": [
        -0.35820838809013367,
        -0.2776367962360382,
        -0.6561654210090637,
        0.650321364402771
      ],
      "type": "VEC4"
    },
    {
      "bufferView": 3,
      "byteOffset": 200,
      "componentType": 5126,
      "count": 3,
      "max": [
        2.0833332538604736
      ],
      "min": [
        0.0416666679084301
      ],
      "type": "SCALAR"
    },
    {
      "bufferView": 4,
      "componentType": 5126,
      "count": 3,
      "max": [
        1.0,
        1.0,
        0.9999999403953552
      ],
      "min": [
        0.9999999403953552,
        0.9999999403953552,
        0.9999999403953552
      ],
      "type": "VEC3"
    },
    {
      "bufferView": 3,
      "byteOffset": 212,
      "componentType": 5126,
      "count": 201,
      "max": [
        8.333333015441895
      ],
      "min": [
        0.0
      ],
      "type": "SCALAR"
    },
    {
      "bufferView": 5,
      "byteOffset": 800,
      "componentType": 5126,
      "count": 201,
      "max": [
        -0.2635277807712555,
        -0.17780394852161407,
        -0.6096612811088562,
        0.6843869686126709
      ],
      "min": [
        -0.3582085072994232,
        -0.2776368260383606,
        -0.6561654806137085,
        0.6503213047981262
      ],
      "type": "VEC4"
    },
    {
      "bufferView": 3,
      "byteOffset": 1016,
      "componentType": 5126,
      "count": 1,
      "max": [
        0.0
      ],
      "min": [
        0.0
      ],
      "type": "SCALAR"
    },
    {
      "bufferView": 5,
      "byteOffset": 4016,
      "componentType": 5126,
      "count": 1,
      "max": [
        -0.6218451857566833,
        0.04289761558175087,
        -0.062115393579006195,
        0.779493510723114
      ],
      "min": [
        -0.6218451857566833,
        0.04289761558175087,
        -0.062115393579006195,
        0.779493510723114
      ],
      "type": "VEC4"
    }
  ],
  "animations": [
    {
      "channels": [
        {
          "sampler": 0,
          "target": {
            "node": 3,
            "path": "rotation"
          }
        },
        {
          "sampler": 1,
          "target": {
            "node": 3,
            "path": "scale"
          }
        }
      ],
      "name": "Action",
      "samplers": [
        {
          "input": 20,
          "interpolation": "LINEAR",
          "output": 21
        },
        {
          "input": 22,
          "interpolation": "LINEAR",
          "output": 23
        }
      ]
    },
    {
      "channels": [
        {
          "sampler": 0,
          "target": {
            "node": 3,
            "path": "rotation"
          }
        }
      ],
      "name": "KiteAction",
      "samplers": [
        {
          "input": 24,
          "interpolation": "LINEAR",
          "output": 25
        }
      ]
    },
    {
      "channels": [
        {
          "sampler": 0,
          "target": {
            "node": 3,
            "path": "rotation"
          }
        }
      ],
      "name": "SunAction",
      "samplers": [
        {
          "input": 26,
          "interpolation": "LINEAR",
          "output": 27
        }
      ]
    }
  ],
  "asset": {
    "extras": {
      "author": "Pragyanand (https://sketchfab.com/pragyanand)",
      "license": "CC-BY-4.0 (http://creativecommons.org/licenses/by/4.0/)",
      "source": "https://sketchfab.com/3d-models/beatiful-kite-kite-festival-50de8584fcd44ed4b78ef82cec1b2b88",
      "title": "Beatiful Kite | Kite Festival"
    },
    "generator": "Sketchfab-14.76.0",
    "version": "2.0"
  },
  "bufferViews": [
    {
      "buffer": 0,
      "byteLength": 592944,
      "name": "floatBufferViews",
      "target": 34963
    },
    {
      "buffer": 0,
      "byteLength": 790048,
      "byteOffset": 592944,
      "byteStride": 8,
      "name": "floatBufferViews",
      "target": 34962
    },
    {
      "buffer": 0,
      "byteLength": 2370144,
      "byteOffset": 1382992,
      "byteStride": 12,
      "name": "floatBufferViews",
      "target": 34962
    },
    {
      "buffer": 0,
      "byteLength": 1020,
      "byteOffset": 3753136,
      "name": "floatBufferViews"
    },
    {
      "buffer": 0,
      "byteLength": 36,
      "byteOffset": 3754156,
      "byteStride": 12,
      "name": "floatBufferViews"
    },
    {
      "buffer": 0,
      "byteLength": 4032,
      "byteOffset": 3754192,
      "byteStride": 16,
      "name": "floatBufferViews"
    }
  ],
  "buffers": [
    {
      "byteLength": 3758224,
      "uri": "scene.bin"
    }
  ],
  "materials": [
    {
      "doubleSided": true,
      "name": "Material.003",
      "pbrMetallicRoughness": {
        "baseColorFactor": [
          0.686636,
          0.0139387,
          1.0,
          1.0
        ],
        "metallicFactor": 0.0,
        "roughnessFactor": 0.5
      }
    },
    {
      "doubleSided": true,
      "name": "Material.002",
      "pbrMetallicRoughness": {
        "baseColorFactor": [
          0.911408,
          1.0,
          1.0,
          1.0
        ],
        "metallicFactor": 0.0,
        "roughnessFactor": 0.5
      }
    },
    {
      "doubleSided": true,
      "name": "Material.001",
      "pbrMetallicRoughness": {
        "baseColorFactor": [
          0.717871,
          0.682407,
          0.8,
          1.0
        ],
        "metallicFactor": 0.0,
        "roughnessFactor": 0.5
      }
    },
    {
      "doubleSided": true,
      "name": "tAIL",
      "pbrMetallicRoughness": {
        "baseColorFactor": [
          0.8,
          0.35237,
          0.582923,
          1.0
        ],
        "metallicFactor": 0.0,
        "roughnessFactor": 0.5
      }
    }
  ],
  "meshes": [
    {
      "name": "Object_0",
      "primitives": [
        {
          "attributes": {
            "NORMAL": 1,
            "POSITION": 0,
            "TEXCOORD_0": 2
          },
          "indices": 3,
          "material": 0,
          "mode": 4
        }
      ]
    },
    {
      "name": "Object_1",
      "primitives": [
        {
          "attributes": {
            "NORMAL": 5,
            "POSITION": 4,
            "TEXCOORD_0": 6
          },
          "indices": 7,
          "material": 1,
          "mode": 4
        }
      ]
    },
    {
      "name": "Object_2",
      "primitives": [
        {
          "attributes": {
            "NORMAL": 9,
            "POSITION": 8,
            "TEXCOORD_0": 10
          },
          "indices": 11,
          "material": 2,
          "mode": 4
        }
      ]
    },
    {
      "name": "Object_3",
      "primitives": [
        {
          "attributes": {
            "NORMAL": 13,
            "POSITION": 12,
            "TEXCOORD_0": 14
          },
          "indices": 15,
          "material": 2,
          "mode": 4
        }
      ]
    },
    {
      "name": "Object_4",
      "primitives": [
        {
          "attributes": {
            "NORMAL": 17,
            "POSITION": 16,
            "TEXCOORD_0": 18
          },
          "indices": 19,
          "material": 3,
          "mode": 4
        }
      ]
    }
  ],
  "nodes": [
    {
      "children": [
        1
      ],
      "matrix": [
        -7.519716018578038e-05,
        -2.220446049250313e-16,
        1.0,
        0.0,
        1.0,
        -1.6697123724935898e-20,
        7.519716018578038e-05,
        0.0,
        0.0,
        1.0,
        2.220446049250313e-16,
        0.0,
        0.0,
        0.0,
        0.0,
        1.0
      ],
      "name": "Sketchfab_model"
    },
    {
      "children": [
        2
      ],
      "name": "root"
    },
    {
      "children": [
        3
      ],
      "matrix": [
        1.0,
        0.0,
        0.0,
        0.0,
        0.0,
        2.220446049250313e-16,
        1.0,
        0.0,
        0.0,
        -1.0,
        2.220446049250313e-16,
        0.0,
        0.0,
        0.0,
        0.0,
        1.0
      ],
      "name": "GLTF_SceneRootNode"
    },
    {
      "children": [
        4,
        5,
        6,
        7,
        8
      ],
      "name": "Kite_0",
      "rotation": [
        -0.2635277211666107,
        -0.2776367664337158,
        -0.6561654210090637,
        0.650321364402771
      ],
      "translation": [
        0.005154475569725037,
        2.5408389568328857,
        -0.04328501224517822
      ]
    },
    {
      "mesh": 0,
      "name": "Object_4"
    },
    {
      "mesh": 1,
      "name": "Object_5"
    },
    {
      "mesh": 2,
      "name": "Object_6"
    },
    {
      "mesh": 3,
      "name": "Object_7"
    },
    {
      "mesh": 4,
      "name": "Object_8"
    }
  ],
  "scene": 0,
  "scenes": [
    {
      "name": "Sketchfab_Scene",
      "nodes": [
        0
      ]
    }
  ]
}
